# File created by Blade
# Date/Time:  Thu Jan 22 16:16:06 2015
# Frame Rate: 120.000 fps
#------------------------------------------------------
:FULLY-SPECIFIED
:DEGREES
1200
root -1.819476 36.322652 -1.288778 -4.503854 -0.434895 5.385169
RightUpLeg 4.103223 6.022182 -20.562553
RightLeg 6.984056 -0.000000 -0.000000
RightFoot -12.511064 -6.768928 27.956287
RightToeBase 12.073183 -0.000000 -0.000000
LeftUpLeg -6.099005 2.756342 2.112993
LeftLeg 34.599542 -0.000000 -0.000000
LeftFoot -13.714611 -3.039696 -20.984704
LeftToeBase 1.111523 -0.000000 -0.000000
Spine 23.086695 -3.915802 -1.101500
RightShoulder -3.248315 -15.168338 -28.431146
RightArm 15.236977 19.279480 41.272537
RightForeArm 15.496603 0.000000 21.689544
RightHand 7.833792 0.000000 -11.514140
RightHandThumb1 -24.326973 -0.000000 -32.862282
LeftShoulder -25.870977 33.099386 5.977116
LeftArm 52.433640 -30.316321 -63.654033
LeftForeArm 39.911283 -0.000000 26.761956
LeftHand -19.107301 -0.000000 0.031160
LeftHandThumb1 -26.253704 0.000000 33.147579
Head -24.969334 6.512707 -8.790298
1201
root -1.728299 36.299059 -1.255804 -4.578504 -0.454007 5.169588
RightUpLeg 4.207363 6.142037 -20.441009
RightLeg 6.987879 -0.000000 -0.000000
RightFoot -12.487517 -6.982406 28.025271
RightToeBase 12.010281 -0.000000 -0.000000
LeftUpLeg -5.412267 1.953414 1.975128
LeftLeg 33.649337 -0.000000 -0.000000
LeftFoot -14.968215 -2.113034 -21.023473
LeftToeBase 1.759101 -0.000000 -0.000000
Spine 22.789971 -4.005595 -1.238981
RightShoulder -3.340687 -14.974579 -28.554836
RightArm 15.004793 19.684406 41.065490
RightForeArm 15.664166 0.000000 21.546924
RightHand 7.707486 0.000000 -11.409051
RightHandThumb1 -24.326973 -0.000000 -32.862282
LeftShoulder -25.854062 33.150375 6.357367
LeftArm 52.436822 -30.970001 -63.653880
LeftForeArm 39.774307 0.000000 26.368266
LeftHand -19.340713 -0.000000 0.145169
LeftHandThumb1 -26.253704 0.000000 33.147579
Head -24.514048 6.714251 -8.404338
1202
root -1.636952 36.280733 -1.229749 -4.631930 -0.457839 4.983696
RightUpLeg 4.318587 6.344108 -20.336492
RightLeg 6.925734 -0.000000 -0.000000
RightFoot -12.431582 -7.324807 28.091153
RightToeBase 11.851101 -0.000000 -0.000000
LeftUpLeg -4.744859 1.136160 1.823955
LeftLeg 32.632215 -0.000000 -0.000000
LeftFoot -16.047491 -1.292774 -21.046863
LeftToeBase 2.431548 -0.000000 -0.000000
Spine 22.501618 -4.059822 -1.430490
RightShoulder -3.435594 -14.886134 -28.591588
RightArm 14.792414 20.073569 40.795192
RightForeArm 15.796643 0.000000 21.428278
RightHand 7.574933 0.000000 -11.387417
RightHandThumb1 -24.326973 -0.000000 -32.862282
LeftShoulder -25.835075 33.205799 6.767422
LeftArm 52.540766 -31.632086 -63.727811
LeftForeArm 39.637808 0.000000 25.984183
LeftHand -19.302506 -0.000000 -0.107152
LeftHandThumb1 -26.253704 0.000000 33.147579
Head -24.094257 6.829666 -7.965192
1203
root -1.534474 36.265354 -1.211069 -4.643222 -0.492340 4.877272
RightUpLeg 4.321293 6.366462 -20.349307
RightLeg 6.939429 -0.000000 -0.000000
RightFoot -12.356348 -7.501975 28.115003
RightToeBase 11.849937 -0.000000 -0.000000
LeftUpLeg -4.095835 0.390878 1.582995
LeftLeg 31.553704 -0.000000 -0.000000
LeftFoot -17.037410 -0.610386 -21.182144
LeftToeBase 3.774620 -0.000000 -0.000000
Spine 22.190890 -4.056573 -1.686608
RightShoulder -3.561698 -14.636051 -28.614397
RightArm 14.472710 20.334676 40.483006
RightForeArm 15.806645 0.000000 21.324286
RightHand 7.452505 -0.000000 -11.150022
RightHandThumb1 -24.326973 -0.000000 -32.862282
LeftShoulder -25.754612 33.233888 7.215125
LeftArm 52.609901 -32.276308 -63.763244
LeftForeArm 39.545738 -0.000000 25.556526
LeftHand -19.417430 -0.000000 -0.087372
LeftHandThumb1 -26.253704 0.000000 33.147579
Head -23.741525 6.990656 -7.520203
1204
root -1.428942 36.257651 -1.187902 -4.743686 -0.513815 4.794149
RightUpLeg 4.465197 6.403165 -20.378838
RightLeg 6.847269 -0.000000 -0.000000
RightFoot -12.190515 -7.730211 28.182443
RightToeBase 11.720420 -0.000000 -0.000000
LeftUpLeg -3.397052 -0.236879 1.332469
LeftLeg 30.553037 -0.000000 -0.000000
LeftFoot -17.882080 0.055445 -21.211493
LeftToeBase 4.614333 -0.000000 -0.000000
Spine 22.016725 -4.041693 -1.976609
RightShoulder -3.713177 -14.605622 -28.590521
RightArm 14.309668 20.688574 40.204298
RightForeArm 15.744614 0.000000 21.242193
RightHand 7.186180 0.000000 -10.976388
RightHandThumb1 -24.326973 -0.000000 -32.862282
LeftShoulder -25.644653 33.273731 7.685590
LeftArm 52.695669 -32.927219 -63.822981
LeftForeArm 39.321096 -0.000000 25.169417
LeftHand -19.473868 -0.000000 -0.127499
LeftHandThumb1 -26.253704 0.000000 33.147579
Head -23.458653 6.989193 -7.114828
1205
root -1.325624 36.256026 -1.173851 -4.814265 -0.590199 4.729935
RightUpLeg 4.530892 6.479647 -20.411349
RightLeg 6.787598 -0.000000 -0.000000
RightFoot -11.974204 -8.051652 28.155081
RightToeBase 11.475986 -0.000000 -0.000000
LeftUpLeg -2.777458 -0.622585 1.117029
LeftLeg 29.598506 -0.000000 -0.000000
LeftFoot -18.514108 0.586725 -21.219605
LeftToeBase 5.157513 -0.000000 -0.000000
Spine 21.837560 -3.988872 -2.304118
RightShoulder -3.833798 -14.539301 -28.527366
RightArm 14.152370 21.025324 39.907592
RightForeArm 15.755947 0.000000 21.145708
RightHand 6.888533 -0.000000 -10.835285
RightHandThumb1 -24.326973 -0.000000 -32.862282
LeftShoulder -25.556722 33.283133 8.145600
LeftArm 52.735473 -33.528301 -63.779994
LeftForeArm 39.196269 -0.000000 24.756897
LeftHand -19.641760 -0.000000 -0.168508
LeftHandThumb1 -26.253704 0.000000 33.147579
Head -23.207083 7.152384 -6.682593
1206
root -1.219997 36.260811 -1.168355 -4.842391 -0.689596 4.690658
RightUpLeg 4.546773 6.464557 -20.482596
RightLeg 6.675134 -0.000000 -0.000000
RightFoot -11.674351 -8.361292 28.110338
RightToeBase 11.296431 -0.000000 -0.000000
LeftUpLeg -2.262092 -0.736949 0.925551
LeftLeg 28.712273 -0.000000 -0.000000
LeftFoot -18.933101 0.958344 -21.124231
LeftToeBase 5.628268 -0.000000 -0.000000
Spine 21.647882 -3.891895 -2.646844
RightShoulder -3.938364 -14.475072 -28.455391
RightArm 13.901936 21.375538 39.628122
RightForeArm 15.734512 0.000000 21.096892
RightHand 6.900324 0.000000 -10.402882
RightHandThumb1 -24.326973 -0.000000 -32.862282
LeftShoulder -25.430084 33.249402 8.664193
LeftArm 52.753733 -34.083762 -63.757063
LeftForeArm 38.900726 -0.000000 24.311833
LeftHand -19.651803 0.000000 -0.098440
LeftHandThumb1 -26.253704 0.000000 33.147579
Head -23.041461 7.166428 -6.262279
1207
root -1.110696 36.274416 -1.169368 -4.870552 -0.788913 4.693279
RightUpLeg 4.541513 6.310931 -20.606434
RightLeg 6.570997 -0.000000 -0.000000
RightFoot -11.268706 -8.653038 27.965583
RightToeBase 11.036095 -0.000000 -0.000000
LeftUpLeg -1.805740 -0.682217 0.714400
LeftLeg 27.905325 -0.000000 -0.000000
LeftFoot -19.185646 1.182906 -20.989507
LeftToeBase 6.237123 -0.000000 -0.000000
Spine 21.499262 -3.815730 -3.038847
RightShoulder -4.052780 -14.394059 -28.360201
RightArm 13.720764 21.774899 39.390763
RightForeArm 15.612811 -0.000000 21.082347
RightHand 6.720896 -0.000000 -10.147678
RightHandThumb1 -24.326973 -0.000000 -32.862282
LeftShoulder -25.373799 33.240141 9.079252
LeftArm 52.846243 -34.639796 -63.684518
LeftForeArm 38.679888 -0.000000 23.823107
LeftHand -19.709551 0.000000 0.035960
LeftHandThumb1 -26.253704 0.000000 33.147579
Head -22.953769 7.343930 -5.886965
1208
root -1.006184 36.294619 -1.175684 -4.890917 -0.915673 4.643051
RightUpLeg 4.530526 6.151904 -20.649763
RightLeg 6.418110 -0.000000 -0.000000
RightFoot -10.821218 -9.067999 27.779781
RightToeBase 10.826659 -0.000000 -0.000000
LeftUpLeg -1.419549 -0.456028 0.599952
LeftLeg 27.206541 -0.000000 -0.000000
LeftFoot -19.299833 1.286130 -20.777291
LeftToeBase 6.701968 -0.000000 -0.000000
Spine 21.374893 -3.694139 -3.347393
RightShoulder -4.178858 -14.245532 -28.250321
RightArm 13.460707 22.125149 39.143962
RightForeArm 15.403554 0.000000 21.118732
RightHand 6.490755 -0.000000 -9.906186
RightHandThumb1 -24.326973 -0.000000 -32.862282
LeftShoulder -25.312139 33.262431 9.468420
LeftArm 53.044161 -35.206806 -63.690368
LeftForeArm 38.408277 -0.000000 23.293292
LeftHand -19.775095 -0.000000 0.215179
LeftHandThumb1 -26.253704 0.000000 33.147579
Head -22.923634 7.426893 -5.528207
1209
root -0.896075 36.321846 -1.185623 -4.882540 -1.057208 4.587231
RightUpLeg 4.484655 5.820899 -20.711524
RightLeg 6.243761 -0.000000 -0.000000
RightFoot -10.274679 -9.385944 27.683330
RightToeBase 10.717035 -0.000000 -0.000000
LeftUpLeg -1.107840 -0.223324 0.493948
LeftLeg 26.566686 -0.000000 -0.000000
LeftFoot -19.290463 1.388876 -20.497445
LeftToeBase 6.878189 -0.000000 -0.000000
Spine 21.235539 -3.616464 -3.630660
RightShoulder -4.282074 -14.180388 -28.131888
RightArm 13.290222 22.464327 38.864102
RightForeArm 15.338988 -0.000000 21.118828
RightHand 6.421497 0.000000 -9.655339
RightHandThumb1 -24.326973 -0.000000 -32.862282
LeftShoulder -25.336598 33.320277 9.777678
LeftArm 53.280123 -35.719526 -63.712540
LeftForeArm 38.194357 -0.000000 22.749582
LeftHand -19.833929 -0.000000 0.439350
LeftHandThumb1 -26.253704 0.000000 33.147579
Head -22.947587 7.512790 -5.226893
1210
root -0.793570 36.353062 -1.204709 -4.788490 -1.204434 4.448178
RightUpLeg 4.363392 5.383698 -20.659472
RightLeg 6.013998 -0.000000 -0.000000
RightFoot -9.633993 -9.863714 27.427654
RightToeBase 10.528265 -0.000000 -0.000000
LeftUpLeg -0.940849 0.008801 0.496093
LeftLeg 25.999891 -0.000000 -0.000000
LeftFoot -19.233171 1.413161 -20.290459
LeftToeBase 7.119926 -0.000000 -0.000000
Spine 21.010391 -3.532941 -3.777148
RightShoulder -4.369767 -14.070042 -28.076798
RightArm 13.040466 22.775868 38.650149
RightForeArm 15.209674 0.000000 21.141691
RightHand 6.406559 -0.000000 -9.419950
RightHandThumb1 -24.326973 -0.000000 -32.862282
LeftShoulder -25.288493 33.351242 10.077574
LeftArm 53.476699 -36.244398 -63.728874
LeftForeArm 38.023378 -0.000000 22.210579
LeftHand -19.918123 0.000000 0.653296
LeftHandThumb1 -26.253704 0.000000 33.147579
Head -22.996607 7.639834 -5.025632
